<?xml version="1.0" encoding="utf-8" standalone="no"?>
<!DOCTYPE svg PUBLIC "-//W3C//DTD SVG 1.1//EN"
  "http://www.w3.org/Graphics/SVG/1.1/DTD/svg11.dtd">
<svg xmlns:xlink="http://www.w3.org/1999/xlink" width="676.969687pt" height="408.634375pt" viewBox="0 0 676.969687 408.634375" xmlns="http://www.w3.org/2000/svg" version="1.1">
 <metadata>
  <rdf:RDF xmlns:dc="http://purl.org/dc/elements/1.1/" xmlns:cc="http://creativecommons.org/ns#" xmlns:rdf="http://www.w3.org/1999/02/22-rdf-syntax-ns#">
   <cc:Work>
    <dc:type rdf:resource="http://purl.org/dc/dcmitype/StillImage"/>
    <dc:date>2026-06-15T02:22:44.413675</dc:date>
    <dc:format>image/svg+xml</dc:format>
    <dc:creator>
     <cc:Agent>
      <dc:title>Matplotlib v3.10.9, https://matplotlib.org/</dc:title>
     </cc:Agent>
    </dc:creator>
   </cc:Work>
  </rdf:RDF>
 </metadata>
 <defs>
  <style type="text/css">*{stroke-linejoin: round; stroke-linecap: butt}</style>
 </defs>
 <g id="figure_1">
  <g id="patch_1">
   <path d="M 0 408.634375 
L 676.969687 408.634375 
L 676.969687 0 
L 0 0 
z
" style="fill: #ffffff"/>
  </g>
  <g id="axes_1">
   <g id="patch_2">
    <path d="M 166.379687 371.078125 
L 669.769687 371.078125 
L 669.769687 22.318125 
L 166.379687 22.318125 
z
" style="fill: #ffffff"/>
   </g>
   <g id="patch_3">
    <path d="M 166.379687 355.225398 
L 270.431743 355.225398 
L 270.431743 329.343394 
L 166.379687 329.343394 
z
" clip-path="url(#p65a08e17c0)" style="fill: #2a9d8f; opacity: 0.88"/>
   </g>
   <g id="patch_4">
    <path d="M 166.379687 322.872893 
L 273.304931 322.872893 
L 273.304931 296.990889 
L 166.379687 296.990889 
z
" clip-path="url(#p65a08e17c0)" style="fill: #2a9d8f; opacity: 0.88"/>
   </g>
   <g id="patch_5">
    <path d="M 166.379687 290.520388 
L 284.375365 290.520388 
L 284.375365 264.638385 
L 166.379687 264.638385 
z
" clip-path="url(#p65a08e17c0)" style="fill: #2a9d8f; opacity: 0.88"/>
   </g>
   <g id="patch_6">
    <path d="M 166.379687 258.167884 
L 292.492467 258.167884 
L 292.492467 232.28588 
L 166.379687 232.28588 
z
" clip-path="url(#p65a08e17c0)" style="fill: #2a9d8f; opacity: 0.88"/>
   </g>
   <g id="patch_7">
    <path d="M 166.379687 225.815379 
L 297.932965 225.815379 
L 297.932965 199.933375 
L 166.379687 199.933375 
z
" clip-path="url(#p65a08e17c0)" style="fill: #2a9d8f; opacity: 0.88"/>
   </g>
   <g id="patch_8">
    <path d="M 166.379687 193.462875 
L 310.208101 193.462875 
L 310.208101 167.580871 
L 166.379687 167.580871 
z
" clip-path="url(#p65a08e17c0)" style="fill: #2a9d8f; opacity: 0.88"/>
   </g>
   <g id="patch_9">
    <path d="M 166.379687 161.11037 
L 345.848641 161.11037 
L 345.848641 135.228366 
L 166.379687 135.228366 
z
" clip-path="url(#p65a08e17c0)" style="fill: #2a9d8f; opacity: 0.88"/>
   </g>
   <g id="patch_10">
    <path d="M 166.379687 128.757865 
L 406.565374 128.757865 
L 406.565374 102.875862 
L 166.379687 102.875862 
z
" clip-path="url(#p65a08e17c0)" style="fill: #2a9d8f; opacity: 0.88"/>
   </g>
   <g id="patch_11">
    <path d="M 166.379687 96.405361 
L 487.982281 96.405361 
L 487.982281 70.523357 
L 166.379687 70.523357 
z
" clip-path="url(#p65a08e17c0)" style="fill: #2a9d8f; opacity: 0.88"/>
   </g>
   <g id="patch_12">
    <path d="M 166.379687 64.052856 
L 591.056463 64.052856 
L 591.056463 38.170852 
L 166.379687 38.170852 
z
" clip-path="url(#p65a08e17c0)" style="fill: #2a9d8f; opacity: 0.88"/>
   </g>
   <g id="matplotlib.axis_1">
    <g id="xtick_1">
     <g id="line2d_1">
      <path d="M 166.379687 371.078125 
L 166.379687 22.318125 
" clip-path="url(#p65a08e17c0)" style="fill: none; stroke: #dddddd; stroke-width: 0.6; stroke-linecap: square"/>
     </g>
     <g id="line2d_2">
      <defs>
       <path id="m734e5e4194" d="M 0 0 
L 0 3.5 
" style="stroke: #000000; stroke-width: 0.8"/>
      </defs>
      <g>
       <use xlink:href="#m734e5e4194" x="166.379687" y="371.078125" style="stroke: #000000; stroke-width: 0.8"/>
      </g>
     </g>
     <g id="text_1">
      <!-- 0.000 -->
      <g transform="translate(152.065625 385.676562) scale(0.1 -0.1)">
       <defs>
        <path id="DejaVuSans-30" d="M 2034 4250 
Q 1547 4250 1301 3770 
Q 1056 3291 1056 2328 
Q 1056 1369 1301 889 
Q 1547 409 2034 409 
Q 2525 409 2770 889 
Q 3016 1369 3016 2328 
Q 3016 3291 2770 3770 
Q 2525 4250 2034 4250 
z
M 2034 4750 
Q 2819 4750 3233 4129 
Q 3647 3509 3647 2328 
Q 3647 1150 3233 529 
Q 2819 -91 2034 -91 
Q 1250 -91 836 529 
Q 422 1150 422 2328 
Q 422 3509 836 4129 
Q 1250 4750 2034 4750 
z
" transform="scale(0.015625)"/>
        <path id="DejaVuSans-2e" d="M 684 794 
L 1344 794 
L 1344 0 
L 684 0 
L 684 794 
z
" transform="scale(0.015625)"/>
       </defs>
       <use xlink:href="#DejaVuSans-30"/>
       <use xlink:href="#DejaVuSans-2e" transform="translate(63.623047 0)"/>
       <use xlink:href="#DejaVuSans-30" transform="translate(95.410156 0)"/>
       <use xlink:href="#DejaVuSans-30" transform="translate(159.033203 0)"/>
       <use xlink:href="#DejaVuSans-30" transform="translate(222.65625 0)"/>
      </g>
     </g>
    </g>
    <g id="xtick_2">
     <g id="line2d_3">
      <path d="M 234.731367 371.078125 
L 234.731367 22.318125 
" clip-path="url(#p65a08e17c0)" style="fill: none; stroke: #dddddd; stroke-width: 0.6; stroke-linecap: square"/>
     </g>
     <g id="line2d_4">
      <g>
       <use xlink:href="#m734e5e4194" x="234.731367" y="371.078125" style="stroke: #000000; stroke-width: 0.8"/>
      </g>
     </g>
     <g id="text_2">
      <!-- 0.002 -->
      <g transform="translate(220.417305 385.676562) scale(0.1 -0.1)">
       <defs>
        <path id="DejaVuSans-32" d="M 1228 531 
L 3431 531 
L 3431 0 
L 469 0 
L 469 531 
Q 828 903 1448 1529 
Q 2069 2156 2228 2338 
Q 2531 2678 2651 2914 
Q 2772 3150 2772 3378 
Q 2772 3750 2511 3984 
Q 2250 4219 1831 4219 
Q 1534 4219 1204 4116 
Q 875 4013 500 3803 
L 500 4441 
Q 881 4594 1212 4672 
Q 1544 4750 1819 4750 
Q 2544 4750 2975 4387 
Q 3406 4025 3406 3419 
Q 3406 3131 3298 2873 
Q 3191 2616 2906 2266 
Q 2828 2175 2409 1742 
Q 1991 1309 1228 531 
z
" transform="scale(0.015625)"/>
       </defs>
       <use xlink:href="#DejaVuSans-30"/>
       <use xlink:href="#DejaVuSans-2e" transform="translate(63.623047 0)"/>
       <use xlink:href="#DejaVuSans-30" transform="translate(95.410156 0)"/>
       <use xlink:href="#DejaVuSans-30" transform="translate(159.033203 0)"/>
       <use xlink:href="#DejaVuSans-32" transform="translate(222.65625 0)"/>
      </g>
     </g>
    </g>
    <g id="xtick_3">
     <g id="line2d_5">
      <path d="M 303.083047 371.078125 
L 303.083047 22.318125 
" clip-path="url(#p65a08e17c0)" style="fill: none; stroke: #dddddd; stroke-width: 0.6; stroke-linecap: square"/>
     </g>
     <g id="line2d_6">
      <g>
       <use xlink:href="#m734e5e4194" x="303.083047" y="371.078125" style="stroke: #000000; stroke-width: 0.8"/>
      </g>
     </g>
     <g id="text_3">
      <!-- 0.004 -->
      <g transform="translate(288.768984 385.676562) scale(0.1 -0.1)">
       <defs>
        <path id="DejaVuSans-34" d="M 2419 4116 
L 825 1625 
L 2419 1625 
L 2419 4116 
z
M 2253 4666 
L 3047 4666 
L 3047 1625 
L 3713 1625 
L 3713 1100 
L 3047 1100 
L 3047 0 
L 2419 0 
L 2419 1100 
L 313 1100 
L 313 1709 
L 2253 4666 
z
" transform="scale(0.015625)"/>
       </defs>
       <use xlink:href="#DejaVuSans-30"/>
       <use xlink:href="#DejaVuSans-2e" transform="translate(63.623047 0)"/>
       <use xlink:href="#DejaVuSans-30" transform="translate(95.410156 0)"/>
       <use xlink:href="#DejaVuSans-30" transform="translate(159.033203 0)"/>
       <use xlink:href="#DejaVuSans-34" transform="translate(222.65625 0)"/>
      </g>
     </g>
    </g>
    <g id="xtick_4">
     <g id="line2d_7">
      <path d="M 371.434726 371.078125 
L 371.434726 22.318125 
" clip-path="url(#p65a08e17c0)" style="fill: none; stroke: #dddddd; stroke-width: 0.6; stroke-linecap: square"/>
     </g>
     <g id="line2d_8">
      <g>
       <use xlink:href="#m734e5e4194" x="371.434726" y="371.078125" style="stroke: #000000; stroke-width: 0.8"/>
      </g>
     </g>
     <g id="text_4">
      <!-- 0.006 -->
      <g transform="translate(357.120664 385.676562) scale(0.1 -0.1)">
       <defs>
        <path id="DejaVuSans-36" d="M 2113 2584 
Q 1688 2584 1439 2293 
Q 1191 2003 1191 1497 
Q 1191 994 1439 701 
Q 1688 409 2113 409 
Q 2538 409 2786 701 
Q 3034 994 3034 1497 
Q 3034 2003 2786 2293 
Q 2538 2584 2113 2584 
z
M 3366 4563 
L 3366 3988 
Q 3128 4100 2886 4159 
Q 2644 4219 2406 4219 
Q 1781 4219 1451 3797 
Q 1122 3375 1075 2522 
Q 1259 2794 1537 2939 
Q 1816 3084 2150 3084 
Q 2853 3084 3261 2657 
Q 3669 2231 3669 1497 
Q 3669 778 3244 343 
Q 2819 -91 2113 -91 
Q 1303 -91 875 529 
Q 447 1150 447 2328 
Q 447 3434 972 4092 
Q 1497 4750 2381 4750 
Q 2619 4750 2861 4703 
Q 3103 4656 3366 4563 
z
" transform="scale(0.015625)"/>
       </defs>
       <use xlink:href="#DejaVuSans-30"/>
       <use xlink:href="#DejaVuSans-2e" transform="translate(63.623047 0)"/>
       <use xlink:href="#DejaVuSans-30" transform="translate(95.410156 0)"/>
       <use xlink:href="#DejaVuSans-30" transform="translate(159.033203 0)"/>
       <use xlink:href="#DejaVuSans-36" transform="translate(222.65625 0)"/>
      </g>
     </g>
    </g>
    <g id="xtick_5">
     <g id="line2d_9">
      <path d="M 439.786406 371.078125 
L 439.786406 22.318125 
" clip-path="url(#p65a08e17c0)" style="fill: none; stroke: #dddddd; stroke-width: 0.6; stroke-linecap: square"/>
     </g>
     <g id="line2d_10">
      <g>
       <use xlink:href="#m734e5e4194" x="439.786406" y="371.078125" style="stroke: #000000; stroke-width: 0.8"/>
      </g>
     </g>
     <g id="text_5">
      <!-- 0.008 -->
      <g transform="translate(425.472343 385.676562) scale(0.1 -0.1)">
       <defs>
        <path id="DejaVuSans-38" d="M 2034 2216 
Q 1584 2216 1326 1975 
Q 1069 1734 1069 1313 
Q 1069 891 1326 650 
Q 1584 409 2034 409 
Q 2484 409 2743 651 
Q 3003 894 3003 1313 
Q 3003 1734 2745 1975 
Q 2488 2216 2034 2216 
z
M 1403 2484 
Q 997 2584 770 2862 
Q 544 3141 544 3541 
Q 544 4100 942 4425 
Q 1341 4750 2034 4750 
Q 2731 4750 3128 4425 
Q 3525 4100 3525 3541 
Q 3525 3141 3298 2862 
Q 3072 2584 2669 2484 
Q 3125 2378 3379 2068 
Q 3634 1759 3634 1313 
Q 3634 634 3220 271 
Q 2806 -91 2034 -91 
Q 1263 -91 848 271 
Q 434 634 434 1313 
Q 434 1759 690 2068 
Q 947 2378 1403 2484 
z
M 1172 3481 
Q 1172 3119 1398 2916 
Q 1625 2713 2034 2713 
Q 2441 2713 2670 2916 
Q 2900 3119 2900 3481 
Q 2900 3844 2670 4047 
Q 2441 4250 2034 4250 
Q 1625 4250 1398 4047 
Q 1172 3844 1172 3481 
z
" transform="scale(0.015625)"/>
       </defs>
       <use xlink:href="#DejaVuSans-30"/>
       <use xlink:href="#DejaVuSans-2e" transform="translate(63.623047 0)"/>
       <use xlink:href="#DejaVuSans-30" transform="translate(95.410156 0)"/>
       <use xlink:href="#DejaVuSans-30" transform="translate(159.033203 0)"/>
       <use xlink:href="#DejaVuSans-38" transform="translate(222.65625 0)"/>
      </g>
     </g>
    </g>
    <g id="xtick_6">
     <g id="line2d_11">
      <path d="M 508.138085 371.078125 
L 508.138085 22.318125 
" clip-path="url(#p65a08e17c0)" style="fill: none; stroke: #dddddd; stroke-width: 0.6; stroke-linecap: square"/>
     </g>
     <g id="line2d_12">
      <g>
       <use xlink:href="#m734e5e4194" x="508.138085" y="371.078125" style="stroke: #000000; stroke-width: 0.8"/>
      </g>
     </g>
     <g id="text_6">
      <!-- 0.010 -->
      <g transform="translate(493.824023 385.676562) scale(0.1 -0.1)">
       <defs>
        <path id="DejaVuSans-31" d="M 794 531 
L 1825 531 
L 1825 4091 
L 703 3866 
L 703 4441 
L 1819 4666 
L 2450 4666 
L 2450 531 
L 3481 531 
L 3481 0 
L 794 0 
L 794 531 
z
" transform="scale(0.015625)"/>
       </defs>
       <use xlink:href="#DejaVuSans-30"/>
       <use xlink:href="#DejaVuSans-2e" transform="translate(63.623047 0)"/>
       <use xlink:href="#DejaVuSans-30" transform="translate(95.410156 0)"/>
       <use xlink:href="#DejaVuSans-31" transform="translate(159.033203 0)"/>
       <use xlink:href="#DejaVuSans-30" transform="translate(222.65625 0)"/>
      </g>
     </g>
    </g>
    <g id="xtick_7">
     <g id="line2d_13">
      <path d="M 576.489765 371.078125 
L 576.489765 22.318125 
" clip-path="url(#p65a08e17c0)" style="fill: none; stroke: #dddddd; stroke-width: 0.6; stroke-linecap: square"/>
     </g>
     <g id="line2d_14">
      <g>
       <use xlink:href="#m734e5e4194" x="576.489765" y="371.078125" style="stroke: #000000; stroke-width: 0.8"/>
      </g>
     </g>
     <g id="text_7">
      <!-- 0.012 -->
      <g transform="translate(562.175702 385.676562) scale(0.1 -0.1)">
       <use xlink:href="#DejaVuSans-30"/>
       <use xlink:href="#DejaVuSans-2e" transform="translate(63.623047 0)"/>
       <use xlink:href="#DejaVuSans-30" transform="translate(95.410156 0)"/>
       <use xlink:href="#DejaVuSans-31" transform="translate(159.033203 0)"/>
       <use xlink:href="#DejaVuSans-32" transform="translate(222.65625 0)"/>
      </g>
     </g>
    </g>
    <g id="xtick_8">
     <g id="line2d_15">
      <path d="M 644.841444 371.078125 
L 644.841444 22.318125 
" clip-path="url(#p65a08e17c0)" style="fill: none; stroke: #dddddd; stroke-width: 0.6; stroke-linecap: square"/>
     </g>
     <g id="line2d_16">
      <g>
       <use xlink:href="#m734e5e4194" x="644.841444" y="371.078125" style="stroke: #000000; stroke-width: 0.8"/>
      </g>
     </g>
     <g id="text_8">
      <!-- 0.014 -->
      <g transform="translate(630.527382 385.676562) scale(0.1 -0.1)">
       <use xlink:href="#DejaVuSans-30"/>
       <use xlink:href="#DejaVuSans-2e" transform="translate(63.623047 0)"/>
       <use xlink:href="#DejaVuSans-30" transform="translate(95.410156 0)"/>
       <use xlink:href="#DejaVuSans-31" transform="translate(159.033203 0)"/>
       <use xlink:href="#DejaVuSans-34" transform="translate(222.65625 0)"/>
      </g>
     </g>
    </g>
    <g id="text_9">
     <!-- Permutation importance (test RMSE increase, t/ha) -->
     <g transform="translate(290.880156 399.354687) scale(0.1 -0.1)">
      <defs>
       <path id="DejaVuSans-50" d="M 1259 4147 
L 1259 2394 
L 2053 2394 
Q 2494 2394 2734 2622 
Q 2975 2850 2975 3272 
Q 2975 3691 2734 3919 
Q 2494 4147 2053 4147 
L 1259 4147 
z
M 628 4666 
L 2053 4666 
Q 2838 4666 3239 4311 
Q 3641 3956 3641 3272 
Q 3641 2581 3239 2228 
Q 2838 1875 2053 1875 
L 1259 1875 
L 1259 0 
L 628 0 
L 628 4666 
z
" transform="scale(0.015625)"/>
       <path id="DejaVuSans-65" d="M 3597 1894 
L 3597 1613 
L 953 1613 
Q 991 1019 1311 708 
Q 1631 397 2203 397 
Q 2534 397 2845 478 
Q 3156 559 3463 722 
L 3463 178 
Q 3153 47 2828 -22 
Q 2503 -91 2169 -91 
Q 1331 -91 842 396 
Q 353 884 353 1716 
Q 353 2575 817 3079 
Q 1281 3584 2069 3584 
Q 2775 3584 3186 3129 
Q 3597 2675 3597 1894 
z
M 3022 2063 
Q 3016 2534 2758 2815 
Q 2500 3097 2075 3097 
Q 1594 3097 1305 2825 
Q 1016 2553 972 2059 
L 3022 2063 
z
" transform="scale(0.015625)"/>
       <path id="DejaVuSans-72" d="M 2631 2963 
Q 2534 3019 2420 3045 
Q 2306 3072 2169 3072 
Q 1681 3072 1420 2755 
Q 1159 2438 1159 1844 
L 1159 0 
L 581 0 
L 581 3500 
L 1159 3500 
L 1159 2956 
Q 1341 3275 1631 3429 
Q 1922 3584 2338 3584 
Q 2397 3584 2469 3576 
Q 2541 3569 2628 3553 
L 2631 2963 
z
" transform="scale(0.015625)"/>
       <path id="DejaVuSans-6d" d="M 3328 2828 
Q 3544 3216 3844 3400 
Q 4144 3584 4550 3584 
Q 5097 3584 5394 3201 
Q 5691 2819 5691 2113 
L 5691 0 
L 5113 0 
L 5113 2094 
Q 5113 2597 4934 2840 
Q 4756 3084 4391 3084 
Q 3944 3084 3684 2787 
Q 3425 2491 3425 1978 
L 3425 0 
L 2847 0 
L 2847 2094 
Q 2847 2600 2669 2842 
Q 2491 3084 2119 3084 
Q 1678 3084 1418 2786 
Q 1159 2488 1159 1978 
L 1159 0 
L 581 0 
L 581 3500 
L 1159 3500 
L 1159 2956 
Q 1356 3278 1631 3431 
Q 1906 3584 2284 3584 
Q 2666 3584 2933 3390 
Q 3200 3197 3328 2828 
z
" transform="scale(0.015625)"/>
       <path id="DejaVuSans-75" d="M 544 1381 
L 544 3500 
L 1119 3500 
L 1119 1403 
Q 1119 906 1312 657 
Q 1506 409 1894 409 
Q 2359 409 2629 706 
Q 2900 1003 2900 1516 
L 2900 3500 
L 3475 3500 
L 3475 0 
L 2900 0 
L 2900 538 
Q 2691 219 2414 64 
Q 2138 -91 1772 -91 
Q 1169 -91 856 284 
Q 544 659 544 1381 
z
M 1991 3584 
L 1991 3584 
z
" transform="scale(0.015625)"/>
       <path id="DejaVuSans-74" d="M 1172 4494 
L 1172 3500 
L 2356 3500 
L 2356 3053 
L 1172 3053 
L 1172 1153 
Q 1172 725 1289 603 
Q 1406 481 1766 481 
L 2356 481 
L 2356 0 
L 1766 0 
Q 1100 0 847 248 
Q 594 497 594 1153 
L 594 3053 
L 172 3053 
L 172 3500 
L 594 3500 
L 594 4494 
L 1172 4494 
z
" transform="scale(0.015625)"/>
       <path id="DejaVuSans-61" d="M 2194 1759 
Q 1497 1759 1228 1600 
Q 959 1441 959 1056 
Q 959 750 1161 570 
Q 1363 391 1709 391 
Q 2188 391 2477 730 
Q 2766 1069 2766 1631 
L 2766 1759 
L 2194 1759 
z
M 3341 1997 
L 3341 0 
L 2766 0 
L 2766 531 
Q 2569 213 2275 61 
Q 1981 -91 1556 -91 
Q 1019 -91 701 211 
Q 384 513 384 1019 
Q 384 1609 779 1909 
Q 1175 2209 1959 2209 
L 2766 2209 
L 2766 2266 
Q 2766 2663 2505 2880 
Q 2244 3097 1772 3097 
Q 1472 3097 1187 3025 
Q 903 2953 641 2809 
L 641 3341 
Q 956 3463 1253 3523 
Q 1550 3584 1831 3584 
Q 2591 3584 2966 3190 
Q 3341 2797 3341 1997 
z
" transform="scale(0.015625)"/>
       <path id="DejaVuSans-69" d="M 603 3500 
L 1178 3500 
L 1178 0 
L 603 0 
L 603 3500 
z
M 603 4863 
L 1178 4863 
L 1178 4134 
L 603 4134 
L 603 4863 
z
" transform="scale(0.015625)"/>
       <path id="DejaVuSans-6f" d="M 1959 3097 
Q 1497 3097 1228 2736 
Q 959 2375 959 1747 
Q 959 1119 1226 758 
Q 1494 397 1959 397 
Q 2419 397 2687 759 
Q 2956 1122 2956 1747 
Q 2956 2369 2687 2733 
Q 2419 3097 1959 3097 
z
M 1959 3584 
Q 2709 3584 3137 3096 
Q 3566 2609 3566 1747 
Q 3566 888 3137 398 
Q 2709 -91 1959 -91 
Q 1206 -91 779 398 
Q 353 888 353 1747 
Q 353 2609 779 3096 
Q 1206 3584 1959 3584 
z
" transform="scale(0.015625)"/>
       <path id="DejaVuSans-6e" d="M 3513 2113 
L 3513 0 
L 2938 0 
L 2938 2094 
Q 2938 2591 2744 2837 
Q 2550 3084 2163 3084 
Q 1697 3084 1428 2787 
Q 1159 2491 1159 1978 
L 1159 0 
L 581 0 
L 581 3500 
L 1159 3500 
L 1159 2956 
Q 1366 3272 1645 3428 
Q 1925 3584 2291 3584 
Q 2894 3584 3203 3211 
Q 3513 2838 3513 2113 
z
" transform="scale(0.015625)"/>
       <path id="DejaVuSans-20" transform="scale(0.015625)"/>
       <path id="DejaVuSans-70" d="M 1159 525 
L 1159 -1331 
L 581 -1331 
L 581 3500 
L 1159 3500 
L 1159 2969 
Q 1341 3281 1617 3432 
Q 1894 3584 2278 3584 
Q 2916 3584 3314 3078 
Q 3713 2572 3713 1747 
Q 3713 922 3314 415 
Q 2916 -91 2278 -91 
Q 1894 -91 1617 61 
Q 1341 213 1159 525 
z
M 3116 1747 
Q 3116 2381 2855 2742 
Q 2594 3103 2138 3103 
Q 1681 3103 1420 2742 
Q 1159 2381 1159 1747 
Q 1159 1113 1420 752 
Q 1681 391 2138 391 
Q 2594 391 2855 752 
Q 3116 1113 3116 1747 
z
" transform="scale(0.015625)"/>
       <path id="DejaVuSans-63" d="M 3122 3366 
L 3122 2828 
Q 2878 2963 2633 3030 
Q 2388 3097 2138 3097 
Q 1578 3097 1268 2742 
Q 959 2388 959 1747 
Q 959 1106 1268 751 
Q 1578 397 2138 397 
Q 2388 397 2633 464 
Q 2878 531 3122 666 
L 3122 134 
Q 2881 22 2623 -34 
Q 2366 -91 2075 -91 
Q 1284 -91 818 406 
Q 353 903 353 1747 
Q 353 2603 823 3093 
Q 1294 3584 2113 3584 
Q 2378 3584 2631 3529 
Q 2884 3475 3122 3366 
z
" transform="scale(0.015625)"/>
       <path id="DejaVuSans-28" d="M 1984 4856 
Q 1566 4138 1362 3434 
Q 1159 2731 1159 2009 
Q 1159 1288 1364 580 
Q 1569 -128 1984 -844 
L 1484 -844 
Q 1016 -109 783 600 
Q 550 1309 550 2009 
Q 550 2706 781 3412 
Q 1013 4119 1484 4856 
L 1984 4856 
z
" transform="scale(0.015625)"/>
       <path id="DejaVuSans-73" d="M 2834 3397 
L 2834 2853 
Q 2591 2978 2328 3040 
Q 2066 3103 1784 3103 
Q 1356 3103 1142 2972 
Q 928 2841 928 2578 
Q 928 2378 1081 2264 
Q 1234 2150 1697 2047 
L 1894 2003 
Q 2506 1872 2764 1633 
Q 3022 1394 3022 966 
Q 3022 478 2636 193 
Q 2250 -91 1575 -91 
Q 1294 -91 989 -36 
Q 684 19 347 128 
L 347 722 
Q 666 556 975 473 
Q 1284 391 1588 391 
Q 1994 391 2212 530 
Q 2431 669 2431 922 
Q 2431 1156 2273 1281 
Q 2116 1406 1581 1522 
L 1381 1569 
Q 847 1681 609 1914 
Q 372 2147 372 2553 
Q 372 3047 722 3315 
Q 1072 3584 1716 3584 
Q 2034 3584 2315 3537 
Q 2597 3491 2834 3397 
z
" transform="scale(0.015625)"/>
       <path id="DejaVuSans-52" d="M 2841 2188 
Q 3044 2119 3236 1894 
Q 3428 1669 3622 1275 
L 4263 0 
L 3584 0 
L 2988 1197 
Q 2756 1666 2539 1819 
Q 2322 1972 1947 1972 
L 1259 1972 
L 1259 0 
L 628 0 
L 628 4666 
L 2053 4666 
Q 2853 4666 3247 4331 
Q 3641 3997 3641 3322 
Q 3641 2881 3436 2590 
Q 3231 2300 2841 2188 
z
M 1259 4147 
L 1259 2491 
L 2053 2491 
Q 2509 2491 2742 2702 
Q 2975 2913 2975 3322 
Q 2975 3731 2742 3939 
Q 2509 4147 2053 4147 
L 1259 4147 
z
" transform="scale(0.015625)"/>
       <path id="DejaVuSans-4d" d="M 628 4666 
L 1569 4666 
L 2759 1491 
L 3956 4666 
L 4897 4666 
L 4897 0 
L 4281 0 
L 4281 4097 
L 3078 897 
L 2444 897 
L 1241 4097 
L 1241 0 
L 628 0 
L 628 4666 
z
" transform="scale(0.015625)"/>
       <path id="DejaVuSans-53" d="M 3425 4513 
L 3425 3897 
Q 3066 4069 2747 4153 
Q 2428 4238 2131 4238 
Q 1616 4238 1336 4038 
Q 1056 3838 1056 3469 
Q 1056 3159 1242 3001 
Q 1428 2844 1947 2747 
L 2328 2669 
Q 3034 2534 3370 2195 
Q 3706 1856 3706 1288 
Q 3706 609 3251 259 
Q 2797 -91 1919 -91 
Q 1588 -91 1214 -16 
Q 841 59 441 206 
L 441 856 
Q 825 641 1194 531 
Q 1563 422 1919 422 
Q 2459 422 2753 634 
Q 3047 847 3047 1241 
Q 3047 1584 2836 1778 
Q 2625 1972 2144 2069 
L 1759 2144 
Q 1053 2284 737 2584 
Q 422 2884 422 3419 
Q 422 4038 858 4394 
Q 1294 4750 2059 4750 
Q 2388 4750 2728 4690 
Q 3069 4631 3425 4513 
z
" transform="scale(0.015625)"/>
       <path id="DejaVuSans-45" d="M 628 4666 
L 3578 4666 
L 3578 4134 
L 1259 4134 
L 1259 2753 
L 3481 2753 
L 3481 2222 
L 1259 2222 
L 1259 531 
L 3634 531 
L 3634 0 
L 628 0 
L 628 4666 
z
" transform="scale(0.015625)"/>
       <path id="DejaVuSans-2c" d="M 750 794 
L 1409 794 
L 1409 256 
L 897 -744 
L 494 -744 
L 750 256 
L 750 794 
z
" transform="scale(0.015625)"/>
       <path id="DejaVuSans-2f" d="M 1625 4666 
L 2156 4666 
L 531 -594 
L 0 -594 
L 1625 4666 
z
" transform="scale(0.015625)"/>
       <path id="DejaVuSans-68" d="M 3513 2113 
L 3513 0 
L 2938 0 
L 2938 2094 
Q 2938 2591 2744 2837 
Q 2550 3084 2163 3084 
Q 1697 3084 1428 2787 
Q 1159 2491 1159 1978 
L 1159 0 
L 581 0 
L 581 4863 
L 1159 4863 
L 1159 2956 
Q 1366 3272 1645 3428 
Q 1925 3584 2291 3584 
Q 2894 3584 3203 3211 
Q 3513 2838 3513 2113 
z
" transform="scale(0.015625)"/>
       <path id="DejaVuSans-29" d="M 513 4856 
L 1013 4856 
Q 1481 4119 1714 3412 
Q 1947 2706 1947 2009 
Q 1947 1309 1714 600 
Q 1481 -109 1013 -844 
L 513 -844 
Q 928 -128 1133 580 
Q 1338 1288 1338 2009 
Q 1338 2731 1133 3434 
Q 928 4138 513 4856 
z
" transform="scale(0.015625)"/>
      </defs>
      <use xlink:href="#DejaVuSans-50"/>
      <use xlink:href="#DejaVuSans-65" transform="translate(56.677734 0)"/>
      <use xlink:href="#DejaVuSans-72" transform="translate(118.201172 0)"/>
      <use xlink:href="#DejaVuSans-6d" transform="translate(157.564453 0)"/>
      <use xlink:href="#DejaVuSans-75" transform="translate(254.976562 0)"/>
      <use xlink:href="#DejaVuSans-74" transform="translate(318.355469 0)"/>
      <use xlink:href="#DejaVuSans-61" transform="translate(357.564453 0)"/>
      <use xlink:href="#DejaVuSans-74" transform="translate(418.84375 0)"/>
      <use xlink:href="#DejaVuSans-69" transform="translate(458.052734 0)"/>
      <use xlink:href="#DejaVuSans-6f" transform="translate(485.835938 0)"/>
      <use xlink:href="#DejaVuSans-6e" transform="translate(547.017578 0)"/>
      <use xlink:href="#DejaVuSans-20" transform="translate(610.396484 0)"/>
      <use xlink:href="#DejaVuSans-69" transform="translate(642.183594 0)"/>
      <use xlink:href="#DejaVuSans-6d" transform="translate(669.966797 0)"/>
      <use xlink:href="#DejaVuSans-70" transform="translate(767.378906 0)"/>
      <use xlink:href="#DejaVuSans-6f" transform="translate(830.855469 0)"/>
      <use xlink:href="#DejaVuSans-72" transform="translate(892.037109 0)"/>
      <use xlink:href="#DejaVuSans-74" transform="translate(933.150391 0)"/>
      <use xlink:href="#DejaVuSans-61" transform="translate(972.359375 0)"/>
      <use xlink:href="#DejaVuSans-6e" transform="translate(1033.638672 0)"/>
      <use xlink:href="#DejaVuSans-63" transform="translate(1097.017578 0)"/>
      <use xlink:href="#DejaVuSans-65" transform="translate(1151.998047 0)"/>
      <use xlink:href="#DejaVuSans-20" transform="translate(1213.521484 0)"/>
      <use xlink:href="#DejaVuSans-28" transform="translate(1245.308594 0)"/>
      <use xlink:href="#DejaVuSans-74" transform="translate(1284.322266 0)"/>
      <use xlink:href="#DejaVuSans-65" transform="translate(1323.53125 0)"/>
      <use xlink:href="#DejaVuSans-73" transform="translate(1385.054688 0)"/>
      <use xlink:href="#DejaVuSans-74" transform="translate(1437.154297 0)"/>
      <use xlink:href="#DejaVuSans-20" transform="translate(1476.363281 0)"/>
      <use xlink:href="#DejaVuSans-52" transform="translate(1508.150391 0)"/>
      <use xlink:href="#DejaVuSans-4d" transform="translate(1577.632812 0)"/>
      <use xlink:href="#DejaVuSans-53" transform="translate(1663.912109 0)"/>
      <use xlink:href="#DejaVuSans-45" transform="translate(1727.388672 0)"/>
      <use xlink:href="#DejaVuSans-20" transform="translate(1790.572266 0)"/>
      <use xlink:href="#DejaVuSans-69" transform="translate(1822.359375 0)"/>
      <use xlink:href="#DejaVuSans-6e" transform="translate(1850.142578 0)"/>
      <use xlink:href="#DejaVuSans-63" transform="translate(1913.521484 0)"/>
      <use xlink:href="#DejaVuSans-72" transform="translate(1968.501953 0)"/>
      <use xlink:href="#DejaVuSans-65" transform="translate(2007.365234 0)"/>
      <use xlink:href="#DejaVuSans-61" transform="translate(2068.888672 0)"/>
      <use xlink:href="#DejaVuSans-73" transform="translate(2130.167969 0)"/>
      <use xlink:href="#DejaVuSans-65" transform="translate(2182.267578 0)"/>
      <use xlink:href="#DejaVuSans-2c" transform="translate(2243.791016 0)"/>
      <use xlink:href="#DejaVuSans-20" transform="translate(2275.578125 0)"/>
      <use xlink:href="#DejaVuSans-74" transform="translate(2307.365234 0)"/>
      <use xlink:href="#DejaVuSans-2f" transform="translate(2346.574219 0)"/>
      <use xlink:href="#DejaVuSans-68" transform="translate(2380.265625 0)"/>
      <use xlink:href="#DejaVuSans-61" transform="translate(2443.644531 0)"/>
      <use xlink:href="#DejaVuSans-29" transform="translate(2504.923828 0)"/>
     </g>
    </g>
   </g>
   <g id="matplotlib.axis_2">
    <g id="ytick_1">
     <g id="line2d_17">
      <defs>
       <path id="m478c628aa5" d="M 0 0 
L -3.5 0 
" style="stroke: #000000; stroke-width: 0.8"/>
      </defs>
      <g>
       <use xlink:href="#m478c628aa5" x="166.379687" y="342.284396" style="stroke: #000000; stroke-width: 0.8"/>
      </g>
     </g>
     <g id="text_10">
      <!-- Hot-dry days -->
      <g transform="translate(95.051562 346.083615) scale(0.1 -0.1)">
       <defs>
        <path id="DejaVuSans-48" d="M 628 4666 
L 1259 4666 
L 1259 2753 
L 3553 2753 
L 3553 4666 
L 4184 4666 
L 4184 0 
L 3553 0 
L 3553 2222 
L 1259 2222 
L 1259 0 
L 628 0 
L 628 4666 
z
" transform="scale(0.015625)"/>
        <path id="DejaVuSans-2d" d="M 313 2009 
L 1997 2009 
L 1997 1497 
L 313 1497 
L 313 2009 
z
" transform="scale(0.015625)"/>
        <path id="DejaVuSans-64" d="M 2906 2969 
L 2906 4863 
L 3481 4863 
L 3481 0 
L 2906 0 
L 2906 525 
Q 2725 213 2448 61 
Q 2172 -91 1784 -91 
Q 1150 -91 751 415 
Q 353 922 353 1747 
Q 353 2572 751 3078 
Q 1150 3584 1784 3584 
Q 2172 3584 2448 3432 
Q 2725 3281 2906 2969 
z
M 947 1747 
Q 947 1113 1208 752 
Q 1469 391 1925 391 
Q 2381 391 2643 752 
Q 2906 1113 2906 1747 
Q 2906 2381 2643 2742 
Q 2381 3103 1925 3103 
Q 1469 3103 1208 2742 
Q 947 2381 947 1747 
z
" transform="scale(0.015625)"/>
        <path id="DejaVuSans-79" d="M 2059 -325 
Q 1816 -950 1584 -1140 
Q 1353 -1331 966 -1331 
L 506 -1331 
L 506 -850 
L 844 -850 
Q 1081 -850 1212 -737 
Q 1344 -625 1503 -206 
L 1606 56 
L 191 3500 
L 800 3500 
L 1894 763 
L 2988 3500 
L 3597 3500 
L 2059 -325 
z
" transform="scale(0.015625)"/>
       </defs>
       <use xlink:href="#DejaVuSans-48"/>
       <use xlink:href="#DejaVuSans-6f" transform="translate(75.195312 0)"/>
       <use xlink:href="#DejaVuSans-74" transform="translate(136.376953 0)"/>
       <use xlink:href="#DejaVuSans-2d" transform="translate(175.585938 0)"/>
       <use xlink:href="#DejaVuSans-64" transform="translate(211.669922 0)"/>
       <use xlink:href="#DejaVuSans-72" transform="translate(275.146484 0)"/>
       <use xlink:href="#DejaVuSans-79" transform="translate(316.259766 0)"/>
       <use xlink:href="#DejaVuSans-20" transform="translate(375.439453 0)"/>
       <use xlink:href="#DejaVuSans-64" transform="translate(407.226562 0)"/>
       <use xlink:href="#DejaVuSans-61" transform="translate(470.703125 0)"/>
       <use xlink:href="#DejaVuSans-79" transform="translate(531.982422 0)"/>
       <use xlink:href="#DejaVuSans-73" transform="translate(591.162109 0)"/>
      </g>
     </g>
    </g>
    <g id="ytick_2">
     <g id="line2d_18">
      <g>
       <use xlink:href="#m478c628aa5" x="166.379687" y="309.931891" style="stroke: #000000; stroke-width: 0.8"/>
      </g>
     </g>
     <g id="text_11">
      <!-- Max consecutive heat days 30 -->
      <g transform="translate(7.2 313.73111) scale(0.1 -0.1)">
       <defs>
        <path id="DejaVuSans-78" d="M 3513 3500 
L 2247 1797 
L 3578 0 
L 2900 0 
L 1881 1375 
L 863 0 
L 184 0 
L 1544 1831 
L 300 3500 
L 978 3500 
L 1906 2253 
L 2834 3500 
L 3513 3500 
z
" transform="scale(0.015625)"/>
        <path id="DejaVuSans-76" d="M 191 3500 
L 800 3500 
L 1894 563 
L 2988 3500 
L 3597 3500 
L 2284 0 
L 1503 0 
L 191 3500 
z
" transform="scale(0.015625)"/>
        <path id="DejaVuSans-33" d="M 2597 2516 
Q 3050 2419 3304 2112 
Q 3559 1806 3559 1356 
Q 3559 666 3084 287 
Q 2609 -91 1734 -91 
Q 1441 -91 1130 -33 
Q 819 25 488 141 
L 488 750 
Q 750 597 1062 519 
Q 1375 441 1716 441 
Q 2309 441 2620 675 
Q 2931 909 2931 1356 
Q 2931 1769 2642 2001 
Q 2353 2234 1838 2234 
L 1294 2234 
L 1294 2753 
L 1863 2753 
Q 2328 2753 2575 2939 
Q 2822 3125 2822 3475 
Q 2822 3834 2567 4026 
Q 2313 4219 1838 4219 
Q 1578 4219 1281 4162 
Q 984 4106 628 3988 
L 628 4550 
Q 988 4650 1302 4700 
Q 1616 4750 1894 4750 
Q 2613 4750 3031 4423 
Q 3450 4097 3450 3541 
Q 3450 3153 3228 2886 
Q 3006 2619 2597 2516 
z
" transform="scale(0.015625)"/>
       </defs>
       <use xlink:href="#DejaVuSans-4d"/>
       <use xlink:href="#DejaVuSans-61" transform="translate(86.279297 0)"/>
       <use xlink:href="#DejaVuSans-78" transform="translate(147.558594 0)"/>
       <use xlink:href="#DejaVuSans-20" transform="translate(206.738281 0)"/>
       <use xlink:href="#DejaVuSans-63" transform="translate(238.525391 0)"/>
       <use xlink:href="#DejaVuSans-6f" transform="translate(293.505859 0)"/>
       <use xlink:href="#DejaVuSans-6e" transform="translate(354.6875 0)"/>
       <use xlink:href="#DejaVuSans-73" transform="translate(418.066406 0)"/>
       <use xlink:href="#DejaVuSans-65" transform="translate(470.166016 0)"/>
       <use xlink:href="#DejaVuSans-63" transform="translate(531.689453 0)"/>
       <use xlink:href="#DejaVuSans-75" transform="translate(586.669922 0)"/>
       <use xlink:href="#DejaVuSans-74" transform="translate(650.048828 0)"/>
       <use xlink:href="#DejaVuSans-69" transform="translate(689.257812 0)"/>
       <use xlink:href="#DejaVuSans-76" transform="translate(717.041016 0)"/>
       <use xlink:href="#DejaVuSans-65" transform="translate(776.220703 0)"/>
       <use xlink:href="#DejaVuSans-20" transform="translate(837.744141 0)"/>
       <use xlink:href="#DejaVuSans-68" transform="translate(869.53125 0)"/>
       <use xlink:href="#DejaVuSans-65" transform="translate(932.910156 0)"/>
       <use xlink:href="#DejaVuSans-61" transform="translate(994.433594 0)"/>
       <use xlink:href="#DejaVuSans-74" transform="translate(1055.712891 0)"/>
       <use xlink:href="#DejaVuSans-20" transform="translate(1094.921875 0)"/>
       <use xlink:href="#DejaVuSans-64" transform="translate(1126.708984 0)"/>
       <use xlink:href="#DejaVuSans-61" transform="translate(1190.185547 0)"/>
       <use xlink:href="#DejaVuSans-79" transform="translate(1251.464844 0)"/>
       <use xlink:href="#DejaVuSans-73" transform="translate(1310.644531 0)"/>
       <use xlink:href="#DejaVuSans-20" transform="translate(1362.744141 0)"/>
       <use xlink:href="#DejaVuSans-33" transform="translate(1394.53125 0)"/>
       <use xlink:href="#DejaVuSans-30" transform="translate(1458.154297 0)"/>
      </g>
     </g>
    </g>
    <g id="ytick_3">
     <g id="line2d_19">
      <g>
       <use xlink:href="#m478c628aa5" x="166.379687" y="277.579387" style="stroke: #000000; stroke-width: 0.8"/>
      </g>
     </g>
     <g id="text_12">
      <!-- Cold days &lt;=5C -->
      <g transform="translate(77.085937 281.378605) scale(0.1 -0.1)">
       <defs>
        <path id="DejaVuSans-43" d="M 4122 4306 
L 4122 3641 
Q 3803 3938 3442 4084 
Q 3081 4231 2675 4231 
Q 1875 4231 1450 3742 
Q 1025 3253 1025 2328 
Q 1025 1406 1450 917 
Q 1875 428 2675 428 
Q 3081 428 3442 575 
Q 3803 722 4122 1019 
L 4122 359 
Q 3791 134 3420 21 
Q 3050 -91 2638 -91 
Q 1578 -91 968 557 
Q 359 1206 359 2328 
Q 359 3453 968 4101 
Q 1578 4750 2638 4750 
Q 3056 4750 3426 4639 
Q 3797 4528 4122 4306 
z
" transform="scale(0.015625)"/>
        <path id="DejaVuSans-6c" d="M 603 4863 
L 1178 4863 
L 1178 0 
L 603 0 
L 603 4863 
z
" transform="scale(0.015625)"/>
        <path id="DejaVuSans-3c" d="M 4684 3150 
L 1459 2003 
L 4684 863 
L 4684 294 
L 678 1747 
L 678 2266 
L 4684 3719 
L 4684 3150 
z
" transform="scale(0.015625)"/>
        <path id="DejaVuSans-3d" d="M 678 2906 
L 4684 2906 
L 4684 2381 
L 678 2381 
L 678 2906 
z
M 678 1631 
L 4684 1631 
L 4684 1100 
L 678 1100 
L 678 1631 
z
" transform="scale(0.015625)"/>
        <path id="DejaVuSans-35" d="M 691 4666 
L 3169 4666 
L 3169 4134 
L 1269 4134 
L 1269 2991 
Q 1406 3038 1543 3061 
Q 1681 3084 1819 3084 
Q 2600 3084 3056 2656 
Q 3513 2228 3513 1497 
Q 3513 744 3044 326 
Q 2575 -91 1722 -91 
Q 1428 -91 1123 -41 
Q 819 9 494 109 
L 494 744 
Q 775 591 1075 516 
Q 1375 441 1709 441 
Q 2250 441 2565 725 
Q 2881 1009 2881 1497 
Q 2881 1984 2565 2268 
Q 2250 2553 1709 2553 
Q 1456 2553 1204 2497 
Q 953 2441 691 2322 
L 691 4666 
z
" transform="scale(0.015625)"/>
       </defs>
       <use xlink:href="#DejaVuSans-43"/>
       <use xlink:href="#DejaVuSans-6f" transform="translate(69.824219 0)"/>
       <use xlink:href="#DejaVuSans-6c" transform="translate(131.005859 0)"/>
       <use xlink:href="#DejaVuSans-64" transform="translate(158.789062 0)"/>
       <use xlink:href="#DejaVuSans-20" transform="translate(222.265625 0)"/>
       <use xlink:href="#DejaVuSans-64" transform="translate(254.052734 0)"/>
       <use xlink:href="#DejaVuSans-61" transform="translate(317.529297 0)"/>
       <use xlink:href="#DejaVuSans-79" transform="translate(378.808594 0)"/>
       <use xlink:href="#DejaVuSans-73" transform="translate(437.988281 0)"/>
       <use xlink:href="#DejaVuSans-20" transform="translate(490.087891 0)"/>
       <use xlink:href="#DejaVuSans-3c" transform="translate(521.875 0)"/>
       <use xlink:href="#DejaVuSans-3d" transform="translate(605.664062 0)"/>
       <use xlink:href="#DejaVuSans-35" transform="translate(689.453125 0)"/>
       <use xlink:href="#DejaVuSans-43" transform="translate(753.076172 0)"/>
      </g>
     </g>
    </g>
    <g id="ytick_4">
     <g id="line2d_20">
      <g>
       <use xlink:href="#m478c628aa5" x="166.379687" y="245.226882" style="stroke: #000000; stroke-width: 0.8"/>
      </g>
     </g>
     <g id="text_13">
      <!-- Season rainfall -->
      <g transform="translate(85.346875 249.026101) scale(0.1 -0.1)">
       <defs>
        <path id="DejaVuSans-66" d="M 2375 4863 
L 2375 4384 
L 1825 4384 
Q 1516 4384 1395 4259 
Q 1275 4134 1275 3809 
L 1275 3500 
L 2222 3500 
L 2222 3053 
L 1275 3053 
L 1275 0 
L 697 0 
L 697 3053 
L 147 3053 
L 147 3500 
L 697 3500 
L 697 3744 
Q 697 4328 969 4595 
Q 1241 4863 1831 4863 
L 2375 4863 
z
" transform="scale(0.015625)"/>
       </defs>
       <use xlink:href="#DejaVuSans-53"/>
       <use xlink:href="#DejaVuSans-65" transform="translate(63.476562 0)"/>
       <use xlink:href="#DejaVuSans-61" transform="translate(125 0)"/>
       <use xlink:href="#DejaVuSans-73" transform="translate(186.279297 0)"/>
       <use xlink:href="#DejaVuSans-6f" transform="translate(238.378906 0)"/>
       <use xlink:href="#DejaVuSans-6e" transform="translate(299.560547 0)"/>
       <use xlink:href="#DejaVuSans-20" transform="translate(362.939453 0)"/>
       <use xlink:href="#DejaVuSans-72" transform="translate(394.726562 0)"/>
       <use xlink:href="#DejaVuSans-61" transform="translate(435.839844 0)"/>
       <use xlink:href="#DejaVuSans-69" transform="translate(497.119141 0)"/>
       <use xlink:href="#DejaVuSans-6e" transform="translate(524.902344 0)"/>
       <use xlink:href="#DejaVuSans-66" transform="translate(588.28125 0)"/>
       <use xlink:href="#DejaVuSans-61" transform="translate(623.486328 0)"/>
       <use xlink:href="#DejaVuSans-6c" transform="translate(684.765625 0)"/>
       <use xlink:href="#DejaVuSans-6c" transform="translate(712.548828 0)"/>
      </g>
     </g>
    </g>
    <g id="ytick_5">
     <g id="line2d_21">
      <g>
       <use xlink:href="#m478c628aa5" x="166.379687" y="212.874377" style="stroke: #000000; stroke-width: 0.8"/>
      </g>
     </g>
     <g id="text_14">
      <!-- Mean Tmax -->
      <g transform="translate(101.059375 216.673596) scale(0.1 -0.1)">
       <defs>
        <path id="DejaVuSans-54" d="M -19 4666 
L 3928 4666 
L 3928 4134 
L 2272 4134 
L 2272 0 
L 1638 0 
L 1638 4134 
L -19 4134 
L -19 4666 
z
" transform="scale(0.015625)"/>
       </defs>
       <use xlink:href="#DejaVuSans-4d"/>
       <use xlink:href="#DejaVuSans-65" transform="translate(86.279297 0)"/>
       <use xlink:href="#DejaVuSans-61" transform="translate(147.802734 0)"/>
       <use xlink:href="#DejaVuSans-6e" transform="translate(209.082031 0)"/>
       <use xlink:href="#DejaVuSans-20" transform="translate(272.460938 0)"/>
       <use xlink:href="#DejaVuSans-54" transform="translate(304.248047 0)"/>
       <use xlink:href="#DejaVuSans-6d" transform="translate(365.332031 0)"/>
       <use xlink:href="#DejaVuSans-61" transform="translate(462.744141 0)"/>
       <use xlink:href="#DejaVuSans-78" transform="translate(524.023438 0)"/>
      </g>
     </g>
    </g>
    <g id="ytick_6">
     <g id="line2d_22">
      <g>
       <use xlink:href="#m478c628aa5" x="166.379687" y="180.521873" style="stroke: #000000; stroke-width: 0.8"/>
      </g>
     </g>
     <g id="text_15">
      <!-- Heat days 30 -->
      <g transform="translate(92.971875 184.321091) scale(0.1 -0.1)">
       <use xlink:href="#DejaVuSans-48"/>
       <use xlink:href="#DejaVuSans-65" transform="translate(75.195312 0)"/>
       <use xlink:href="#DejaVuSans-61" transform="translate(136.71875 0)"/>
       <use xlink:href="#DejaVuSans-74" transform="translate(197.998047 0)"/>
       <use xlink:href="#DejaVuSans-20" transform="translate(237.207031 0)"/>
       <use xlink:href="#DejaVuSans-64" transform="translate(268.994141 0)"/>
       <use xlink:href="#DejaVuSans-61" transform="translate(332.470703 0)"/>
       <use xlink:href="#DejaVuSans-79" transform="translate(393.75 0)"/>
       <use xlink:href="#DejaVuSans-73" transform="translate(452.929688 0)"/>
       <use xlink:href="#DejaVuSans-20" transform="translate(505.029297 0)"/>
       <use xlink:href="#DejaVuSans-33" transform="translate(536.816406 0)"/>
       <use xlink:href="#DejaVuSans-30" transform="translate(600.439453 0)"/>
      </g>
     </g>
    </g>
    <g id="ytick_7">
     <g id="line2d_23">
      <g>
       <use xlink:href="#m478c628aa5" x="166.379687" y="148.169368" style="stroke: #000000; stroke-width: 0.8"/>
      </g>
     </g>
     <g id="text_16">
      <!-- Season radiation -->
      <g transform="translate(75.257812 151.968587) scale(0.1 -0.1)">
       <use xlink:href="#DejaVuSans-53"/>
       <use xlink:href="#DejaVuSans-65" transform="translate(63.476562 0)"/>
       <use xlink:href="#DejaVuSans-61" transform="translate(125 0)"/>
       <use xlink:href="#DejaVuSans-73" transform="translate(186.279297 0)"/>
       <use xlink:href="#DejaVuSans-6f" transform="translate(238.378906 0)"/>
       <use xlink:href="#DejaVuSans-6e" transform="translate(299.560547 0)"/>
       <use xlink:href="#DejaVuSans-20" transform="translate(362.939453 0)"/>
       <use xlink:href="#DejaVuSans-72" transform="translate(394.726562 0)"/>
       <use xlink:href="#DejaVuSans-61" transform="translate(435.839844 0)"/>
       <use xlink:href="#DejaVuSans-64" transform="translate(497.119141 0)"/>
       <use xlink:href="#DejaVuSans-69" transform="translate(560.595703 0)"/>
       <use xlink:href="#DejaVuSans-61" transform="translate(588.378906 0)"/>
       <use xlink:href="#DejaVuSans-74" transform="translate(649.658203 0)"/>
       <use xlink:href="#DejaVuSans-69" transform="translate(688.867188 0)"/>
       <use xlink:href="#DejaVuSans-6f" transform="translate(716.650391 0)"/>
       <use xlink:href="#DejaVuSans-6e" transform="translate(777.832031 0)"/>
      </g>
     </g>
    </g>
    <g id="ytick_8">
     <g id="line2d_24">
      <g>
       <use xlink:href="#m478c628aa5" x="166.379687" y="115.816863" style="stroke: #000000; stroke-width: 0.8"/>
      </g>
     </g>
     <g id="text_17">
      <!-- Radiation sum late -->
      <g transform="translate(65.495312 119.616082) scale(0.1 -0.1)">
       <use xlink:href="#DejaVuSans-52"/>
       <use xlink:href="#DejaVuSans-61" transform="translate(67.232422 0)"/>
       <use xlink:href="#DejaVuSans-64" transform="translate(128.511719 0)"/>
       <use xlink:href="#DejaVuSans-69" transform="translate(191.988281 0)"/>
       <use xlink:href="#DejaVuSans-61" transform="translate(219.771484 0)"/>
       <use xlink:href="#DejaVuSans-74" transform="translate(281.050781 0)"/>
       <use xlink:href="#DejaVuSans-69" transform="translate(320.259766 0)"/>
       <use xlink:href="#DejaVuSans-6f" transform="translate(348.042969 0)"/>
       <use xlink:href="#DejaVuSans-6e" transform="translate(409.224609 0)"/>
       <use xlink:href="#DejaVuSans-20" transform="translate(472.603516 0)"/>
       <use xlink:href="#DejaVuSans-73" transform="translate(504.390625 0)"/>
       <use xlink:href="#DejaVuSans-75" transform="translate(556.490234 0)"/>
       <use xlink:href="#DejaVuSans-6d" transform="translate(619.869141 0)"/>
       <use xlink:href="#DejaVuSans-20" transform="translate(717.28125 0)"/>
       <use xlink:href="#DejaVuSans-6c" transform="translate(749.068359 0)"/>
       <use xlink:href="#DejaVuSans-61" transform="translate(776.851562 0)"/>
       <use xlink:href="#DejaVuSans-74" transform="translate(838.130859 0)"/>
       <use xlink:href="#DejaVuSans-65" transform="translate(877.339844 0)"/>
      </g>
     </g>
    </g>
    <g id="ytick_9">
     <g id="line2d_25">
      <g>
       <use xlink:href="#m478c628aa5" x="166.379687" y="83.464359" style="stroke: #000000; stroke-width: 0.8"/>
      </g>
     </g>
     <g id="text_18">
      <!-- Mean radiation -->
      <g transform="translate(84.30625 87.263578) scale(0.1 -0.1)">
       <use xlink:href="#DejaVuSans-4d"/>
       <use xlink:href="#DejaVuSans-65" transform="translate(86.279297 0)"/>
       <use xlink:href="#DejaVuSans-61" transform="translate(147.802734 0)"/>
       <use xlink:href="#DejaVuSans-6e" transform="translate(209.082031 0)"/>
       <use xlink:href="#DejaVuSans-20" transform="translate(272.460938 0)"/>
       <use xlink:href="#DejaVuSans-72" transform="translate(304.248047 0)"/>
       <use xlink:href="#DejaVuSans-61" transform="translate(345.361328 0)"/>
       <use xlink:href="#DejaVuSans-64" transform="translate(406.640625 0)"/>
       <use xlink:href="#DejaVuSans-69" transform="translate(470.117188 0)"/>
       <use xlink:href="#DejaVuSans-61" transform="translate(497.900391 0)"/>
       <use xlink:href="#DejaVuSans-74" transform="translate(559.179688 0)"/>
       <use xlink:href="#DejaVuSans-69" transform="translate(598.388672 0)"/>
       <use xlink:href="#DejaVuSans-6f" transform="translate(626.171875 0)"/>
       <use xlink:href="#DejaVuSans-6e" transform="translate(687.353516 0)"/>
      </g>
     </g>
    </g>
    <g id="ytick_10">
     <g id="line2d_26">
      <g>
       <use xlink:href="#m478c628aa5" x="166.379687" y="51.111854" style="stroke: #000000; stroke-width: 0.8"/>
      </g>
     </g>
     <g id="text_19">
      <!-- Radiation sum mid -->
      <g transform="translate(65.607812 54.911073) scale(0.1 -0.1)">
       <use xlink:href="#DejaVuSans-52"/>
       <use xlink:href="#DejaVuSans-61" transform="translate(67.232422 0)"/>
       <use xlink:href="#DejaVuSans-64" transform="translate(128.511719 0)"/>
       <use xlink:href="#DejaVuSans-69" transform="translate(191.988281 0)"/>
       <use xlink:href="#DejaVuSans-61" transform="translate(219.771484 0)"/>
       <use xlink:href="#DejaVuSans-74" transform="translate(281.050781 0)"/>
       <use xlink:href="#DejaVuSans-69" transform="translate(320.259766 0)"/>
       <use xlink:href="#DejaVuSans-6f" transform="translate(348.042969 0)"/>
       <use xlink:href="#DejaVuSans-6e" transform="translate(409.224609 0)"/>
       <use xlink:href="#DejaVuSans-20" transform="translate(472.603516 0)"/>
       <use xlink:href="#DejaVuSans-73" transform="translate(504.390625 0)"/>
       <use xlink:href="#DejaVuSans-75" transform="translate(556.490234 0)"/>
       <use xlink:href="#DejaVuSans-6d" transform="translate(619.869141 0)"/>
       <use xlink:href="#DejaVuSans-20" transform="translate(717.28125 0)"/>
       <use xlink:href="#DejaVuSans-6d" transform="translate(749.068359 0)"/>
       <use xlink:href="#DejaVuSans-69" transform="translate(846.480469 0)"/>
       <use xlink:href="#DejaVuSans-64" transform="translate(874.263672 0)"/>
      </g>
     </g>
    </g>
   </g>
   <g id="LineCollection_1">
    <path d="M 230.956188 342.284396 
L 309.907299 342.284396 
" clip-path="url(#p65a08e17c0)" style="fill: none; stroke: #333333; stroke-width: 1.5"/>
    <path d="M 254.181693 309.931891 
L 292.428169 309.931891 
" clip-path="url(#p65a08e17c0)" style="fill: none; stroke: #333333; stroke-width: 1.5"/>
    <path d="M 263.060208 277.579387 
L 305.690522 277.579387 
" clip-path="url(#p65a08e17c0)" style="fill: none; stroke: #333333; stroke-width: 1.5"/>
    <path d="M 237.303745 245.226882 
L 347.68119 245.226882 
" clip-path="url(#p65a08e17c0)" style="fill: none; stroke: #333333; stroke-width: 1.5"/>
    <path d="M 270.881929 212.874377 
L 324.984 212.874377 
" clip-path="url(#p65a08e17c0)" style="fill: none; stroke: #333333; stroke-width: 1.5"/>
    <path d="M 209.297897 180.521873 
L 411.118304 180.521873 
" clip-path="url(#p65a08e17c0)" style="fill: none; stroke: #333333; stroke-width: 1.5"/>
    <path d="M 316.898359 148.169368 
L 374.798923 148.169368 
" clip-path="url(#p65a08e17c0)" style="fill: none; stroke: #333333; stroke-width: 1.5"/>
    <path d="M 364.52605 115.816863 
L 448.604697 115.816863 
" clip-path="url(#p65a08e17c0)" style="fill: none; stroke: #333333; stroke-width: 1.5"/>
    <path d="M 450.166008 83.464359 
L 525.798553 83.464359 
" clip-path="url(#p65a08e17c0)" style="fill: none; stroke: #333333; stroke-width: 1.5"/>
    <path d="M 536.314192 51.111854 
L 645.798735 51.111854 
" clip-path="url(#p65a08e17c0)" style="fill: none; stroke: #333333; stroke-width: 1.5"/>
   </g>
   <g id="line2d_27">
    <defs>
     <path id="m8bb07481a6" d="M 0 3 
L 0 -3 
" style="stroke: #333333"/>
    </defs>
    <g clip-path="url(#p65a08e17c0)">
     <use xlink:href="#m8bb07481a6" x="230.956188" y="342.284396" style="fill: #1f77b4; stroke: #333333"/>
     <use xlink:href="#m8bb07481a6" x="254.181693" y="309.931891" style="fill: #1f77b4; stroke: #333333"/>
     <use xlink:href="#m8bb07481a6" x="263.060208" y="277.579387" style="fill: #1f77b4; stroke: #333333"/>
     <use xlink:href="#m8bb07481a6" x="237.303745" y="245.226882" style="fill: #1f77b4; stroke: #333333"/>
     <use xlink:href="#m8bb07481a6" x="270.881929" y="212.874377" style="fill: #1f77b4; stroke: #333333"/>
     <use xlink:href="#m8bb07481a6" x="209.297897" y="180.521873" style="fill: #1f77b4; stroke: #333333"/>
     <use xlink:href="#m8bb07481a6" x="316.898359" y="148.169368" style="fill: #1f77b4; stroke: #333333"/>
     <use xlink:href="#m8bb07481a6" x="364.52605" y="115.816863" style="fill: #1f77b4; stroke: #333333"/>
     <use xlink:href="#m8bb07481a6" x="450.166008" y="83.464359" style="fill: #1f77b4; stroke: #333333"/>
     <use xlink:href="#m8bb07481a6" x="536.314192" y="51.111854" style="fill: #1f77b4; stroke: #333333"/>
    </g>
   </g>
   <g id="line2d_28">
    <g clip-path="url(#p65a08e17c0)">
     <use xlink:href="#m8bb07481a6" x="309.907299" y="342.284396" style="fill: #1f77b4; stroke: #333333"/>
     <use xlink:href="#m8bb07481a6" x="292.428169" y="309.931891" style="fill: #1f77b4; stroke: #333333"/>
     <use xlink:href="#m8bb07481a6" x="305.690522" y="277.579387" style="fill: #1f77b4; stroke: #333333"/>
     <use xlink:href="#m8bb07481a6" x="347.68119" y="245.226882" style="fill: #1f77b4; stroke: #333333"/>
     <use xlink:href="#m8bb07481a6" x="324.984" y="212.874377" style="fill: #1f77b4; stroke: #333333"/>
     <use xlink:href="#m8bb07481a6" x="411.118304" y="180.521873" style="fill: #1f77b4; stroke: #333333"/>
     <use xlink:href="#m8bb07481a6" x="374.798923" y="148.169368" style="fill: #1f77b4; stroke: #333333"/>
     <use xlink:href="#m8bb07481a6" x="448.604697" y="115.816863" style="fill: #1f77b4; stroke: #333333"/>
     <use xlink:href="#m8bb07481a6" x="525.798553" y="83.464359" style="fill: #1f77b4; stroke: #333333"/>
     <use xlink:href="#m8bb07481a6" x="645.798735" y="51.111854" style="fill: #1f77b4; stroke: #333333"/>
    </g>
   </g>
   <g id="patch_13">
    <path d="M 166.379687 371.078125 
L 166.379687 22.318125 
" style="fill: none; stroke: #000000; stroke-width: 0.8; stroke-linejoin: miter; stroke-linecap: square"/>
   </g>
   <g id="patch_14">
    <path d="M 166.379687 371.078125 
L 669.769687 371.078125 
" style="fill: none; stroke: #000000; stroke-width: 0.8; stroke-linejoin: miter; stroke-linecap: square"/>
   </g>
   <g id="text_20">
    <!-- Top weather features for the main AUS-US overlap model -->
    <g transform="translate(246.347187 16.318125) scale(0.12 -0.12)">
     <defs>
      <path id="DejaVuSans-77" d="M 269 3500 
L 844 3500 
L 1563 769 
L 2278 3500 
L 2956 3500 
L 3675 769 
L 4391 3500 
L 4966 3500 
L 4050 0 
L 3372 0 
L 2619 2869 
L 1863 0 
L 1184 0 
L 269 3500 
z
" transform="scale(0.015625)"/>
      <path id="DejaVuSans-41" d="M 2188 4044 
L 1331 1722 
L 3047 1722 
L 2188 4044 
z
M 1831 4666 
L 2547 4666 
L 4325 0 
L 3669 0 
L 3244 1197 
L 1141 1197 
L 716 0 
L 50 0 
L 1831 4666 
z
" transform="scale(0.015625)"/>
      <path id="DejaVuSans-55" d="M 556 4666 
L 1191 4666 
L 1191 1831 
Q 1191 1081 1462 751 
Q 1734 422 2344 422 
Q 2950 422 3222 751 
Q 3494 1081 3494 1831 
L 3494 4666 
L 4128 4666 
L 4128 1753 
Q 4128 841 3676 375 
Q 3225 -91 2344 -91 
Q 1459 -91 1007 375 
Q 556 841 556 1753 
L 556 4666 
z
" transform="scale(0.015625)"/>
     </defs>
     <use xlink:href="#DejaVuSans-54"/>
     <use xlink:href="#DejaVuSans-6f" transform="translate(44.083984 0)"/>
     <use xlink:href="#DejaVuSans-70" transform="translate(105.265625 0)"/>
     <use xlink:href="#DejaVuSans-20" transform="translate(168.742188 0)"/>
     <use xlink:href="#DejaVuSans-77" transform="translate(200.529297 0)"/>
     <use xlink:href="#DejaVuSans-65" transform="translate(282.316406 0)"/>
     <use xlink:href="#DejaVuSans-61" transform="translate(343.839844 0)"/>
     <use xlink:href="#DejaVuSans-74" transform="translate(405.119141 0)"/>
     <use xlink:href="#DejaVuSans-68" transform="translate(444.328125 0)"/>
     <use xlink:href="#DejaVuSans-65" transform="translate(507.707031 0)"/>
     <use xlink:href="#DejaVuSans-72" transform="translate(569.230469 0)"/>
     <use xlink:href="#DejaVuSans-20" transform="translate(610.34375 0)"/>
     <use xlink:href="#DejaVuSans-66" transform="translate(642.130859 0)"/>
     <use xlink:href="#DejaVuSans-65" transform="translate(677.335938 0)"/>
     <use xlink:href="#DejaVuSans-61" transform="translate(738.859375 0)"/>
     <use xlink:href="#DejaVuSans-74" transform="translate(800.138672 0)"/>
     <use xlink:href="#DejaVuSans-75" transform="translate(839.347656 0)"/>
     <use xlink:href="#DejaVuSans-72" transform="translate(902.726562 0)"/>
     <use xlink:href="#DejaVuSans-65" transform="translate(941.589844 0)"/>
     <use xlink:href="#DejaVuSans-73" transform="translate(1003.113281 0)"/>
     <use xlink:href="#DejaVuSans-20" transform="translate(1055.212891 0)"/>
     <use xlink:href="#DejaVuSans-66" transform="translate(1087 0)"/>
     <use xlink:href="#DejaVuSans-6f" transform="translate(1122.205078 0)"/>
     <use xlink:href="#DejaVuSans-72" transform="translate(1183.386719 0)"/>
     <use xlink:href="#DejaVuSans-20" transform="translate(1224.5 0)"/>
     <use xlink:href="#DejaVuSans-74" transform="translate(1256.287109 0)"/>
     <use xlink:href="#DejaVuSans-68" transform="translate(1295.496094 0)"/>
     <use xlink:href="#DejaVuSans-65" transform="translate(1358.875 0)"/>
     <use xlink:href="#DejaVuSans-20" transform="translate(1420.398438 0)"/>
     <use xlink:href="#DejaVuSans-6d" transform="translate(1452.185547 0)"/>
     <use xlink:href="#DejaVuSans-61" transform="translate(1549.597656 0)"/>
     <use xlink:href="#DejaVuSans-69" transform="translate(1610.876953 0)"/>
     <use xlink:href="#DejaVuSans-6e" transform="translate(1638.660156 0)"/>
     <use xlink:href="#DejaVuSans-20" transform="translate(1702.039062 0)"/>
     <use xlink:href="#DejaVuSans-41" transform="translate(1733.826172 0)"/>
     <use xlink:href="#DejaVuSans-55" transform="translate(1802.234375 0)"/>
     <use xlink:href="#DejaVuSans-53" transform="translate(1875.427734 0)"/>
     <use xlink:href="#DejaVuSans-2d" transform="translate(1938.904297 0)"/>
     <use xlink:href="#DejaVuSans-55" transform="translate(1974.988281 0)"/>
     <use xlink:href="#DejaVuSans-53" transform="translate(2048.181641 0)"/>
     <use xlink:href="#DejaVuSans-20" transform="translate(2111.658203 0)"/>
     <use xlink:href="#DejaVuSans-6f" transform="translate(2143.445312 0)"/>
     <use xlink:href="#DejaVuSans-76" transform="translate(2204.626953 0)"/>
     <use xlink:href="#DejaVuSans-65" transform="translate(2263.806641 0)"/>
     <use xlink:href="#DejaVuSans-72" transform="translate(2325.330078 0)"/>
     <use xlink:href="#DejaVuSans-6c" transform="translate(2366.443359 0)"/>
     <use xlink:href="#DejaVuSans-61" transform="translate(2394.226562 0)"/>
     <use xlink:href="#DejaVuSans-70" transform="translate(2455.505859 0)"/>
     <use xlink:href="#DejaVuSans-20" transform="translate(2518.982422 0)"/>
     <use xlink:href="#DejaVuSans-6d" transform="translate(2550.769531 0)"/>
     <use xlink:href="#DejaVuSans-6f" transform="translate(2648.181641 0)"/>
     <use xlink:href="#DejaVuSans-64" transform="translate(2709.363281 0)"/>
     <use xlink:href="#DejaVuSans-65" transform="translate(2772.839844 0)"/>
     <use xlink:href="#DejaVuSans-6c" transform="translate(2834.363281 0)"/>
    </g>
   </g>
  </g>
 </g>
 <defs>
  <clipPath id="p65a08e17c0">
   <rect x="166.379687" y="22.318125" width="503.39" height="348.76"/>
  </clipPath>
 </defs>
</svg>
